<svg viewBox="0 0 860 460" xmlns="http://www.w3.org/2000/svg" font-family="JetBrains Mono,monospace">
<rect width="860" height="460" fill="#111009"/>
<text x="66" y="32" fill="#EDE8DC" font-family="Rajdhani,sans-serif" font-weight="700" font-size="19" letter-spacing="1">Where coordination pays - % better than fixed-time (saturated)</text>
<line x1="66" y1="398.0" x2="840" y2="398.0" stroke="#3D3A30" stroke-width="0.6"/>
<text x="58" y="402.0" fill="#6A6358" font-size="11" text-anchor="end">-2</text>
<line x1="66" y1="313.5" x2="840" y2="313.5" stroke="#3D3A30" stroke-width="0.6"/>
<text x="58" y="317.5" fill="#6A6358" font-size="11" text-anchor="end">8</text>
<line x1="66" y1="229.0" x2="840" y2="229.0" stroke="#3D3A30" stroke-width="0.6"/>
<text x="58" y="233.0" fill="#6A6358" font-size="11" text-anchor="end">17</text>
<line x1="66" y1="144.5" x2="840" y2="144.5" stroke="#3D3A30" stroke-width="0.6"/>
<text x="58" y="148.5" fill="#6A6358" font-size="11" text-anchor="end">27</text>
<line x1="66" y1="60.0" x2="840" y2="60.0" stroke="#3D3A30" stroke-width="0.6"/>
<text x="58" y="64.0" fill="#6A6358" font-size="11" text-anchor="end">36</text>
<line x1="66" y1="383.0" x2="840" y2="383.0" stroke="#6A6358" stroke-width="1.2"/>
<text x="18" y="230" fill="#6A6358" font-size="12" text-anchor="middle" transform="rotate(-90 18 230)">return improvement over fixed-time (%)</text>
<rect x="102.1" y="322.2" width="81.7" height="60.9" fill="#E8C068" opacity="0.9"/>
<text x="143.0" y="318.2" fill="#EDE8DC" font-size="10" text-anchor="middle">7</text>
<rect x="195.0" y="372.6" width="81.7" height="10.5" fill="#6B7A8D" opacity="0.9"/>
<text x="235.9" y="368.6" fill="#EDE8DC" font-size="10" text-anchor="middle">1</text>
<text x="195.0" y="420" fill="#6A6358" font-size="12" text-anchor="middle">corridor (arterial)</text>
<rect x="360.1" y="83.9" width="81.7" height="299.1" fill="#E8C068" opacity="0.9"/>
<text x="401.0" y="79.9" fill="#EDE8DC" font-size="10" text-anchor="middle">34</text>
<rect x="453.0" y="231.0" width="81.7" height="152.1" fill="#6B7A8D" opacity="0.9"/>
<text x="493.9" y="227.0" fill="#EDE8DC" font-size="10" text-anchor="middle">17</text>
<text x="453.0" y="420" fill="#6A6358" font-size="12" text-anchor="middle">couplet grid (1-way)</text>
<rect x="618.1" y="178.9" width="81.7" height="204.1" fill="#E8C068" opacity="0.9"/>
<text x="659.0" y="174.9" fill="#EDE8DC" font-size="10" text-anchor="middle">23</text>
<rect x="711.0" y="178.6" width="81.7" height="204.5" fill="#6B7A8D" opacity="0.9"/>
<text x="751.9" y="174.6" fill="#EDE8DC" font-size="10" text-anchor="middle">23</text>
<text x="711.0" y="420" fill="#6A6358" font-size="12" text-anchor="middle">one-way pair (mixed)</text>
<rect x="66" y="436" width="12" height="12" fill="#E8C068"/>
<text x="84" y="446" fill="#EDE8DC" font-size="12">shared (neighbours)</text>
<rect x="241" y="436" width="12" height="12" fill="#6B7A8D"/>
<text x="259" y="446" fill="#EDE8DC" font-size="12">independent (blind)</text>
</svg>