<svg viewBox="0 0 900 460" xmlns="http://www.w3.org/2000/svg" font-family="JetBrains Mono,monospace">
<rect width="900" height="460" fill="#111009"/>
<text x="70" y="30" fill="#EDE8DC" font-family="Rajdhani,sans-serif" font-weight="700" font-size="19" letter-spacing="1">Signal — three rungs on grid2 (4 agents)</text>
<line x1="70" y1="408.0" x2="876" y2="408.0" stroke="#3D3A30" stroke-width="0.6"/>
<text x="62" y="412.0" fill="#6A6358" font-size="11" text-anchor="end">-107</text>
<line x1="70" y1="319.5" x2="876" y2="319.5" stroke="#3D3A30" stroke-width="0.6"/>
<text x="62" y="323.5" fill="#6A6358" font-size="11" text-anchor="end">-92</text>
<line x1="70" y1="231.0" x2="876" y2="231.0" stroke="#3D3A30" stroke-width="0.6"/>
<text x="62" y="235.0" fill="#6A6358" font-size="11" text-anchor="end">-77</text>
<line x1="70" y1="142.5" x2="876" y2="142.5" stroke="#3D3A30" stroke-width="0.6"/>
<text x="62" y="146.5" fill="#6A6358" font-size="11" text-anchor="end">-62</text>
<line x1="70" y1="54.0" x2="876" y2="54.0" stroke="#3D3A30" stroke-width="0.6"/>
<text x="62" y="58.0" fill="#6A6358" font-size="11" text-anchor="end">-47</text>
<text x="70.0" y="428" fill="#6A6358" font-size="11" text-anchor="middle">0k</text>
<text x="271.5" y="428" fill="#6A6358" font-size="11" text-anchor="middle">375k</text>
<text x="473.0" y="428" fill="#6A6358" font-size="11" text-anchor="middle">750k</text>
<text x="674.5" y="428" fill="#6A6358" font-size="11" text-anchor="middle">1124k</text>
<text x="876.0" y="428" fill="#6A6358" font-size="11" text-anchor="middle">1499k</text>
<text x="450" y="452" fill="#6A6358" font-size="12" text-anchor="middle">env steps</text>
<text x="18" y="230" fill="#6A6358" font-size="12" text-anchor="middle" transform="rotate(-90 18 230)">episode return / agent</text>
<polyline points="71.1,369.4 72.2,346.7 73.3,342.7 74.4,321.1 75.5,310.0 76.6,315.9 77.7,320.9 78.8,317.0 79.9,303.2 81.0,308.4 82.1,329.3 83.2,335.6 84.3,338.3 85.4,322.5 86.5,314.8 87.6,301.8 88.7,297.7 89.8,311.0 90.9,317.1 92.0,308.3 93.1,279.4 94.2,267.4 95.3,266.5 96.4,266.2 97.5,277.3 98.6,266.5 99.7,270.7 100.8,255.8 101.9,239.2 103.0,233.7 104.1,241.1 105.2,250.7 106.3,252.8 107.4,257.7 108.5,259.7 109.6,244.2 110.7,255.5 111.8,246.0 112.9,244.0 114.0,248.7 115.1,251.3 116.2,264.1 117.3,245.6 118.4,240.4 119.5,237.3 120.7,228.7 121.8,223.1 122.9,212.0 124.0,209.6 125.1,221.4 126.2,221.6 127.3,215.6 128.4,206.8 129.5,218.0 130.6,214.7 131.7,209.3 132.8,206.1 133.9,217.6 135.0,216.6 136.1,197.9 137.2,203.9 138.3,209.7 139.4,214.6 140.5,192.9 141.6,188.8 142.7,172.6 143.8,183.7 144.9,197.3 146.0,212.4 147.1,220.5 148.2,216.8 149.3,211.5 150.4,191.7 151.5,183.5 152.6,186.5 153.7,181.6 154.8,191.9 155.9,189.2 157.0,187.4 158.1,174.8 159.2,173.2 160.3,184.7 161.4,180.8 162.5,182.0 163.6,181.9 164.7,185.3 165.8,184.3 166.9,192.1 168.0,185.5 169.1,197.2 170.2,204.5 171.3,195.5 172.4,190.3 173.5,184.5 174.6,183.5 175.7,180.9 176.8,173.0 177.9,183.5 179.0,183.4 180.1,190.1 181.2,179.7 182.3,172.4 183.4,159.1 184.5,147.3 185.6,174.3 186.7,169.2 187.8,147.7 188.9,133.4 190.0,146.6 191.1,147.0 192.2,157.3 193.3,147.5 194.4,153.1 195.5,150.5 196.6,146.8 197.7,142.5 198.8,139.6 199.9,141.6 201.0,136.7 202.1,145.3 203.2,149.3 204.3,145.7 205.4,138.3 206.5,137.0 207.6,129.6 208.7,134.9 209.8,136.2 210.9,145.2 212.0,144.4 213.1,148.4 214.2,140.5 215.3,140.4 216.4,133.3 217.5,141.4 218.6,136.0 219.7,126.6 220.8,128.8 222.0,142.5 223.1,149.5 224.2,139.0 225.3,128.0 226.4,119.2 227.5,128.8 228.6,130.4 229.7,128.9 230.8,134.0 231.9,134.6 233.0,136.3 234.1,137.9 235.2,125.1 236.3,127.8 237.4,138.3 238.5,142.3 239.6,136.7 240.7,126.4 241.8,130.6 242.9,131.5 244.0,140.3 245.1,135.9 246.2,141.1 247.3,152.4 248.4,157.3 249.5,145.0 250.6,135.5 251.7,136.4 252.8,125.0 253.9,129.8 255.0,142.7 256.1,146.8 257.2,140.3 258.3,135.0 259.4,137.0 260.5,138.1 261.6,128.1 262.7,122.9 263.8,119.2 264.9,119.1 266.0,119.2 267.1,133.7 268.2,140.2 269.3,131.6 270.4,127.7 271.5,129.5 272.6,144.4 273.7,145.1 274.8,144.1 275.9,141.8 277.0,136.5 278.1,128.7 279.2,138.2 280.3,161.5 281.4,156.1 282.5,153.3 283.6,142.7 284.7,145.2 285.8,140.5 286.9,148.5 288.0,146.6 289.1,154.9 290.2,152.4 291.3,152.0 292.4,147.0 293.5,137.0 294.6,137.5 295.7,134.4 296.8,134.5 297.9,138.7 299.0,130.1 300.1,141.7 301.2,141.8 302.3,125.6 303.4,117.3 304.5,126.4 305.6,127.0 306.7,136.6 307.8,110.9 308.9,111.2 310.0,108.7 311.1,114.2 312.2,114.5 313.3,113.9 314.4,114.9 315.5,121.4 316.6,119.6 317.7,116.1 318.8,122.0 319.9,121.0 321.0,132.3 322.2,124.6 323.3,129.1 324.4,125.4 325.5,130.7 326.6,127.4 327.7,127.3 328.8,117.3 329.9,126.1 331.0,120.0 332.1,129.2 333.2,125.0 334.3,123.9 335.4,125.0 336.5,116.0 337.6,107.7 338.7,106.7 339.8,119.7 340.9,123.1 342.0,126.3 343.1,129.5 344.2,129.2 345.3,125.5 346.4,134.4 347.5,127.8 348.6,132.6 349.7,125.7 350.8,112.6 351.9,104.7 353.0,104.8 354.1,97.4 355.2,105.9 356.3,113.0 357.4,109.5 358.5,122.3 359.6,115.9 360.7,116.7 361.8,111.8 362.9,116.1 364.0,112.9 365.1,122.1 366.2,106.4 367.3,100.7 368.4,100.8 369.5,114.9 370.6,121.8 371.7,134.0 372.8,134.1 373.9,134.8 375.0,122.4 376.1,113.6 377.2,110.3 378.3,123.3 379.4,126.9 380.5,114.6 381.6,106.8 382.7,103.3 383.8,98.9 384.9,114.4 386.0,128.8 387.1,141.7 388.2,140.1 389.3,124.4 390.4,116.3 391.5,109.5 392.6,109.5 393.7,108.5 394.8,119.0 395.9,124.6 397.0,132.9 398.1,120.8 399.2,122.2 400.3,123.3 401.4,121.8 402.5,123.9 403.6,123.6 404.7,131.0 405.8,123.5 406.9,126.2 408.0,131.0 409.1,131.2 410.2,126.3 411.3,123.5 412.4,123.9 413.5,117.7 414.6,120.7 415.7,136.3 416.8,137.9 417.9,126.2 419.0,130.1 420.1,124.5 421.2,109.5 422.3,125.5 423.5,120.8 424.6,130.9 425.7,118.4 426.8,115.3 427.9,127.6 429.0,127.6 430.1,131.9 431.2,110.5 432.3,115.0 433.4,116.5 434.5,128.4 435.6,121.6 436.7,131.2 437.8,127.3 438.9,128.0 440.0,121.3 441.1,118.7 442.2,125.0 443.3,131.6 444.4,123.4 445.5,116.0 446.6,101.0 447.7,102.4 448.8,99.2 449.9,103.9 451.0,119.7 452.1,118.7 453.2,119.5 454.3,113.5 455.4,108.8 456.5,110.1 457.6,106.4 458.7,108.6 459.8,120.3 460.9,125.3 462.0,126.0 463.1,117.2 464.2,113.7 465.3,100.0 466.4,107.1 467.5,115.9 468.6,115.2 469.7,118.0 470.8,123.6 471.9,122.7 473.0,106.5 474.1,112.8 475.2,116.8 476.3,128.3 477.4,124.2 478.5,125.4 479.6,126.4 480.7,121.4 481.8,114.1 482.9,119.8 484.0,136.6 485.1,136.3 486.2,129.0 487.3,116.2 488.4,116.6 489.5,118.6 490.6,123.2 491.7,139.5 492.8,133.7 493.9,131.8 495.0,138.1 496.1,127.4 497.2,126.0 498.3,115.8 499.4,130.3 500.5,119.8 501.6,111.7 502.7,109.9 503.8,111.4 504.9,111.5 506.0,110.2 507.1,117.1 508.2,126.5 509.3,118.9 510.4,112.7 511.5,108.3 512.6,121.4 513.7,119.5 514.8,117.0 515.9,105.9 517.0,103.6 518.1,110.8 519.2,120.2 520.3,122.1 521.4,118.5 522.5,115.4 523.7,108.3 524.8,103.8 525.9,110.5 527.0,116.2 528.1,133.5 529.2,139.2 530.3,129.6 531.4,126.7 532.5,120.2 533.6,118.1 534.7,133.2 535.8,126.6 536.9,126.9 538.0,118.2 539.1,122.2 540.2,119.5 541.3,122.0 542.4,123.7 543.5,123.6 544.6,113.8 545.7,119.9 546.8,120.7 547.9,126.6 549.0,126.8 550.1,117.4 551.2,105.4 552.3,99.7 553.4,107.6 554.5,124.3 555.6,132.7 556.7,126.9 557.8,119.9 558.9,130.5 560.0,127.8 561.1,119.8 562.2,104.5 563.3,109.3 564.4,111.4 565.5,110.8 566.6,118.4 567.7,136.1 568.8,140.1 569.9,145.3 571.0,138.7 572.1,118.5 573.2,120.0 574.3,117.3 575.4,122.3 576.5,127.4 577.6,120.6 578.7,126.4 579.8,118.7 580.9,121.3 582.0,122.9 583.1,136.3 584.2,133.3 585.3,129.4 586.4,126.3 587.5,134.3 588.6,140.2 589.7,146.2 590.8,151.8 591.9,141.6 593.0,134.4 594.1,141.3 595.2,154.0 596.3,158.1 597.4,136.2 598.5,128.8 599.6,132.7 600.7,126.0 601.8,145.9 602.9,137.7 604.0,137.3 605.1,128.0 606.2,138.2 607.3,143.4 608.4,164.3 609.5,152.2 610.6,133.5 611.7,115.8 612.8,110.4 613.9,131.7 615.0,120.5 616.1,111.3 617.2,118.2 618.3,125.0 619.4,127.4 620.5,127.6 621.6,122.2 622.7,124.5 623.8,118.7 625.0,121.2 626.1,122.1 627.2,127.8 628.3,130.0 629.4,132.6 630.5,140.4 631.6,130.0 632.7,120.1 633.8,121.1 634.9,126.1 636.0,145.9 637.1,152.3 638.2,152.5 639.3,146.7 640.4,124.9 641.5,126.6 642.6,120.9 643.7,120.3 644.8,119.8 645.9,118.3 647.0,116.3 648.1,119.2 649.2,115.2 650.3,110.1 651.4,106.1 652.5,108.9 653.6,115.9 654.7,110.7 655.8,113.4 656.9,116.6 658.0,113.0 659.1,116.1 660.2,110.4 661.3,107.5 662.4,104.2 663.5,112.0 664.6,120.2 665.7,111.2 666.8,103.5 667.9,110.7 669.0,123.2 670.1,123.0 671.2,120.6 672.3,119.6 673.4,119.0 674.5,113.1 675.6,111.5 676.7,103.1 677.8,127.8 678.9,127.3 680.0,131.9 681.1,135.4 682.2,144.1 683.3,145.1 684.4,141.4 685.5,134.4 686.6,125.4 687.7,108.9 688.8,101.6 689.9,96.5 691.0,100.2 692.1,112.3 693.2,111.7 694.3,110.7 695.4,110.6 696.5,120.9 697.6,135.8 698.7,117.9 699.8,116.7 700.9,115.2 702.0,127.1 703.1,123.8 704.2,129.5 705.3,129.8 706.4,137.7 707.5,144.7 708.6,142.4 709.7,126.3 710.8,109.8 711.9,114.2 713.0,129.2 714.1,132.4 715.2,137.4 716.3,132.6 717.4,140.4 718.5,131.9 719.6,135.0 720.7,119.9 721.8,118.4 722.9,120.3 724.0,130.2 725.2,127.9 726.3,126.3 727.4,117.2 728.5,122.3 729.6,114.7 730.7,136.9 731.8,154.0 732.9,147.9 734.0,127.2 735.1,136.8 736.2,125.2 737.3,129.1 738.4,110.5 739.5,116.5 740.6,113.9 741.7,125.4 742.8,113.7 743.9,116.2 745.0,114.3 746.1,132.3 747.2,156.6 748.3,143.6 749.4,128.9 750.5,123.6 751.6,131.5 752.7,132.6 753.8,129.2 754.9,128.8 756.0,122.1 757.1,119.4 758.2,120.0 759.3,124.9 760.4,130.9 761.5,137.0 762.6,142.6 763.7,141.8 764.8,127.4 765.9,122.4 767.0,114.3 768.1,118.9 769.2,126.0 770.3,130.7 771.4,138.1 772.5,132.6 773.6,129.7 774.7,133.4 775.8,137.3 776.9,141.3 778.0,139.2 779.1,145.4 780.2,147.0 781.3,135.7 782.4,131.3 783.5,142.1 784.6,143.6 785.7,138.4 786.8,129.9 787.9,133.0 789.0,123.0 790.1,128.1 791.2,123.7 792.3,125.0 793.4,123.1 794.5,114.5 795.6,121.8 796.7,128.2 797.8,126.0 798.9,127.2 800.0,114.7 801.1,115.3 802.2,118.5 803.3,127.5 804.4,129.2 805.5,125.2 806.6,125.7 807.7,122.6 808.8,132.4 809.9,137.9 811.0,138.3 812.1,134.3 813.2,139.5 814.3,132.6 815.4,115.4 816.5,107.0 817.6,108.5 818.7,123.7 819.8,123.0 820.9,124.4 822.0,116.7 823.1,110.1 824.2,110.4 825.3,117.7 826.5,125.7 827.6,130.4 828.7,131.1 829.8,145.7 830.9,157.3 832.0,145.5 833.1,145.3 834.2,133.3 835.3,123.1 836.4,116.7 837.5,122.6 838.6,129.1 839.7,127.6 840.8,115.1 841.9,108.7 843.0,108.4 844.1,117.5 845.2,108.5 846.3,116.7 847.4,115.9 848.5,116.9 849.6,130.0 850.7,136.0 851.8,129.1 852.9,127.3 854.0,101.0 855.1,131.2 856.2,117.9 857.3,139.2 858.4,121.4 859.5,126.3 860.6,120.1 861.7,122.6 862.8,112.0 863.9,109.6 865.0,115.0 866.1,131.2 867.2,128.8 868.3,125.6 869.4,110.0 870.5,105.0 871.6,107.1 872.7,123.5 873.8,130.7 874.9,130.6 876.0,136.1" fill="none" stroke="#E8C068" stroke-width="2" opacity="0.95"/>
<line x1="716" y1="40" x2="736" y2="40" stroke="#E8C068" stroke-width="3"/>
<text x="742" y="44" fill="#EDE8DC" font-size="11">shared-grid2-fix-s0</text>
<polyline points="71.1,383.6 72.2,342.2 73.3,338.6 74.4,301.9 75.5,293.6 76.6,295.7 77.7,310.6 78.8,307.8 79.9,295.8 81.0,289.9 82.1,301.3 83.2,311.3 84.3,326.1 85.4,323.0 86.5,310.3 87.6,293.8 88.7,287.7 89.8,293.9 90.9,298.2 92.0,300.7 93.1,293.2 94.2,295.7 95.3,301.4 96.4,290.0 97.5,293.4 98.6,284.3 99.7,292.9 100.8,278.7 101.9,262.1 103.0,281.5 104.1,289.7 105.2,289.9 106.3,280.2 107.4,273.0 108.5,268.9 109.6,261.3 110.7,266.2 111.8,265.3 112.9,271.9 114.0,287.5 115.1,282.0 116.2,280.7 117.3,271.6 118.4,278.6 119.5,296.8 120.7,288.2 121.8,279.6 122.9,277.7 124.0,285.5 125.1,289.0 126.2,284.9 127.3,273.4 128.4,270.8 129.5,273.3 130.6,265.1 131.7,256.7 132.8,255.9 133.9,268.2 135.0,271.6 136.1,257.3 137.2,267.9 138.3,278.7 139.4,280.7 140.5,263.8 141.6,261.3 142.7,268.0 143.8,285.3 144.9,312.3 146.0,329.5 147.1,326.7 148.2,336.9 149.3,345.5 150.4,350.9 151.5,353.1 152.6,362.2 153.7,330.4 154.8,337.5 155.9,339.2 157.0,359.2 158.1,354.1 159.2,351.7 160.3,353.3 161.4,327.9 162.5,307.1 163.6,290.7 164.7,299.6 165.8,295.9 166.9,294.5 168.0,268.6 169.1,293.2 170.2,325.3 171.3,349.3 172.4,346.3 173.5,319.0 174.6,278.1 175.7,249.3 176.8,230.8 177.9,229.7 179.0,239.2 180.1,265.0 181.2,266.5 182.3,252.8 183.4,227.4 184.5,202.0 185.6,234.2 186.7,227.0 187.8,193.1 188.9,171.2 190.0,198.2 191.1,202.7 192.2,219.1 193.3,203.0 194.4,211.1 195.5,200.2 196.6,198.9 197.7,192.8 198.8,196.9 199.9,203.1 201.0,194.5 202.1,207.2 203.2,209.2 204.3,216.5 205.4,217.4 206.5,234.7 207.6,244.2 208.7,247.3 209.8,246.5 210.9,263.2 212.0,240.5 213.1,251.6 214.2,221.3 215.3,225.5 216.4,196.5 217.5,204.1 218.6,186.1 219.7,172.2 220.8,187.6 222.0,206.4 223.1,226.7 224.2,207.6 225.3,190.8 226.4,173.2 227.5,190.6 228.6,190.0 229.7,186.3 230.8,171.1 231.9,166.2 233.0,163.7 234.1,165.7 235.2,169.8 236.3,184.0 237.4,186.8 238.5,192.3 239.6,177.5 240.7,168.2 241.8,167.1 242.9,182.3 244.0,195.8 245.1,201.0 246.2,214.5 247.3,239.1 248.4,242.4 249.5,209.3 250.6,176.0 251.7,169.4 252.8,153.9 253.9,157.0 255.0,163.2 256.1,161.8 257.2,153.7 258.3,147.3 259.4,160.3 260.5,162.4 261.6,155.1 262.7,155.1 263.8,151.2 264.9,145.8 266.0,138.7 267.1,146.4 268.2,148.8 269.3,140.4 270.4,143.0 271.5,142.2 272.6,160.9 273.7,154.7 274.8,154.0 275.9,154.0 277.0,153.8 278.1,151.6 279.2,157.0 280.3,178.8 281.4,178.9 282.5,170.2 283.6,161.4 284.7,166.6 285.8,163.8 286.9,166.6 288.0,164.7 289.1,173.4 290.2,178.3 291.3,175.8 292.4,165.7 293.5,145.8 294.6,142.8 295.7,135.8 296.8,134.5 297.9,144.1 299.0,139.7 300.1,158.6 301.2,155.5 302.3,141.3 303.4,136.8 304.5,137.1 305.6,134.8 306.7,145.0 307.8,120.0 308.9,124.2 310.0,117.6 311.1,127.7 312.2,130.8 313.3,131.3 314.4,125.7 315.5,125.8 316.6,125.5 317.7,117.6 318.8,120.6 319.9,116.7 321.0,127.5 322.2,122.3 323.3,127.3 324.4,121.0 325.5,127.1 326.6,122.4 327.7,129.5 328.8,116.6 329.9,128.7 331.0,117.9 332.1,126.7 333.2,120.3 334.3,124.0 335.4,122.7 336.5,113.9 337.6,107.4 338.7,109.1 339.8,124.3 340.9,132.0 342.0,133.8 343.1,126.3 344.2,124.0 345.3,119.8 346.4,129.5 347.5,132.9 348.6,132.7 349.7,133.7 350.8,120.9 351.9,117.4 353.0,120.8 354.1,115.8 355.2,124.3 356.3,131.3 357.4,125.2 358.5,135.2 359.6,124.5 360.7,123.8 361.8,118.8 362.9,118.7 364.0,113.9 365.1,117.5 366.2,111.7 367.3,108.1 368.4,105.2 369.5,111.6 370.6,115.0 371.7,127.3 372.8,132.3 373.9,131.4 375.0,118.1 376.1,107.5 377.2,101.2 378.3,114.5 379.4,122.0 380.5,115.9 381.6,103.0 382.7,97.9 383.8,93.8 384.9,101.5 386.0,105.5 387.1,119.6 388.2,122.3 389.3,115.8 390.4,106.2 391.5,95.5 392.6,89.7 393.7,87.4 394.8,101.6 395.9,109.1 397.0,116.9 398.1,108.4 399.2,107.6 400.3,111.6 401.4,114.0 402.5,111.6 403.6,113.5 404.7,121.6 405.8,115.9 406.9,116.9 408.0,118.6 409.1,116.6 410.2,112.4 411.3,109.3 412.4,113.4 413.5,108.9 414.6,112.8 415.7,122.8 416.8,125.7 417.9,120.0 419.0,126.0 420.1,117.1 421.2,99.9 422.3,110.3 423.5,106.7 424.6,117.0 425.7,102.1 426.8,103.7 427.9,105.0 429.0,105.5 430.1,108.3 431.2,95.0 432.3,102.9 433.4,111.0 434.5,119.9 435.6,109.1 436.7,113.0 437.8,112.4 438.9,110.3 440.0,106.0 441.1,101.2 442.2,113.8 443.3,122.9 444.4,114.2 445.5,100.6 446.6,93.3 447.7,96.2 448.8,96.3 449.9,100.6 451.0,111.3 452.1,109.1 453.2,104.6 454.3,101.8 455.4,99.2 456.5,102.6 457.6,99.7 458.7,99.7 459.8,113.1 460.9,120.8 462.0,124.4 463.1,113.6 464.2,113.1 465.3,101.4 466.4,94.9 467.5,100.9 468.6,99.1 469.7,111.6 470.8,114.1 471.9,113.0 473.0,97.1 474.1,102.1 475.2,110.6 476.3,119.6 477.4,119.2 478.5,117.7 479.6,119.8 480.7,113.0 481.8,101.4 482.9,111.0 484.0,125.7 485.1,130.6 486.2,124.1 487.3,114.1 488.4,107.3 489.5,107.4 490.6,110.2 491.7,116.6 492.8,109.2 493.9,110.1 495.0,122.3 496.1,117.5 497.2,110.7 498.3,100.8 499.4,112.4 500.5,106.7 501.6,100.2 502.7,103.2 503.8,101.8 504.9,100.9 506.0,99.1 507.1,104.2 508.2,113.4 509.3,105.5 510.4,102.1 511.5,96.9 512.6,111.8 513.7,107.1 514.8,103.8 515.9,92.0 517.0,90.4 518.1,103.8 519.2,115.9 520.3,118.6 521.4,110.5 522.5,100.9 523.7,92.9 524.8,95.4 525.9,102.1 527.0,105.1 528.1,118.2 529.2,123.6 530.3,117.3 531.4,111.5 532.5,99.7 533.6,96.8 534.7,109.4 535.8,100.9 536.9,100.7 538.0,90.5 539.1,94.7 540.2,97.6 541.3,99.6 542.4,106.5 543.5,104.2 544.6,95.8 545.7,97.8 546.8,98.1 547.9,106.3 549.0,119.1 550.1,111.3 551.2,95.1 552.3,88.5 553.4,91.7 554.5,102.3 555.6,112.3 556.7,107.6 557.8,103.4 558.9,104.0 560.0,102.7 561.1,97.6 562.2,90.3 563.3,99.8 564.4,100.9 565.5,101.7 566.6,108.1 567.7,116.9 568.8,118.5 569.9,118.5 571.0,113.7 572.1,99.3 573.2,100.3 574.3,96.5 575.4,99.2 576.5,102.9 577.6,95.5 578.7,101.0 579.8,96.5 580.9,104.1 582.0,102.6 583.1,112.9 584.2,115.4 585.3,110.0 586.4,108.9 587.5,105.9 588.6,110.6 589.7,118.3 590.8,125.2 591.9,118.7 593.0,109.3 594.1,106.2 595.2,113.5 596.3,112.4 597.4,99.9 598.5,96.0 599.6,95.9 600.7,92.0 601.8,110.3 602.9,110.6 604.0,107.3 605.1,100.4 606.2,100.1 607.3,104.2 608.4,121.3 609.5,118.6 610.6,110.2 611.7,102.6 612.8,97.7 613.9,118.6 615.0,115.4 616.1,110.5 617.2,109.8 618.3,111.7 619.4,112.3 620.5,108.8 621.6,104.0 622.7,101.1 623.8,98.6 625.0,98.8 626.1,104.1 627.2,111.3 628.3,113.8 629.4,110.0 630.5,116.6 631.6,106.9 632.7,97.8 633.8,94.7 634.9,98.1 636.0,108.7 637.1,115.4 638.2,112.2 639.3,116.6 640.4,102.2 641.5,112.2 642.6,106.0 643.7,99.3 644.8,95.3 645.9,94.8 647.0,87.7 648.1,96.9 649.2,99.9 650.3,93.1 651.4,88.2 652.5,89.7 653.6,99.9 654.7,96.4 655.8,98.4 656.9,99.9 658.0,97.6 659.1,100.9 660.2,96.4 661.3,91.7 662.4,88.6 663.5,103.8 664.6,120.1 665.7,106.7 666.8,92.3 667.9,94.9 669.0,108.1 670.1,111.8 671.2,110.7 672.3,105.7 673.4,106.7 674.5,100.9 675.6,98.3 676.7,89.1 677.8,111.7 678.9,109.7 680.0,113.2 681.1,114.3 682.2,117.9 683.3,120.6 684.4,114.4 685.5,112.2 686.6,108.9 687.7,92.3 688.8,87.1 689.9,78.4 691.0,83.5 692.1,91.2 693.2,90.7 694.3,90.3 695.4,88.6 696.5,104.5 697.6,115.6 698.7,93.6 699.8,95.5 700.9,94.3 702.0,103.6 703.1,101.5 704.2,110.0 705.3,111.9 706.4,113.4 707.5,116.8 708.6,110.2 709.7,103.2 710.8,88.9 711.9,89.2 713.0,99.2 714.1,100.6 715.2,102.5 716.3,105.9 717.4,109.7 718.5,108.8 719.6,115.2 720.7,101.9 721.8,101.6 722.9,96.4 724.0,102.0 725.2,103.5 726.3,103.0 727.4,100.7 728.5,99.8 729.6,93.1 730.7,106.5 731.8,114.5 732.9,112.6 734.0,104.4 735.1,113.6 736.2,108.0 737.3,112.5 738.4,95.9 739.5,100.7 740.6,90.7 741.7,104.9 742.8,91.8 743.9,92.7 745.0,87.0 746.1,96.0 747.2,112.3 748.3,107.8 749.4,99.7 750.5,95.2 751.6,102.9 752.7,105.3 753.8,106.4 754.9,100.9 756.0,97.3 757.1,95.2 758.2,99.1 759.3,106.6 760.4,108.3 761.5,113.9 762.6,112.5 763.7,114.8 764.8,103.3 765.9,95.8 767.0,92.3 768.1,95.1 769.2,100.5 770.3,107.8 771.4,116.1 772.5,113.8 773.6,105.9 774.7,103.5 775.8,107.6 776.9,109.5 778.0,110.6 779.1,116.3 780.2,120.3 781.3,112.7 782.4,104.6 783.5,112.6 784.6,117.0 785.7,120.5 786.8,109.3 787.9,108.5 789.0,95.6 790.1,103.5 791.2,110.3 792.3,108.4 793.4,102.3 794.5,96.6 795.6,99.5 796.7,102.6 797.8,104.8 798.9,101.0 800.0,93.3 801.1,100.0 802.2,109.6 803.3,124.3 804.4,124.4 805.5,132.9 806.6,135.5 807.7,138.7 808.8,139.6 809.9,150.6 811.0,154.4 812.1,161.1 813.2,152.5 814.3,138.7 815.4,125.0 816.5,110.3 817.6,112.3 818.7,127.4 819.8,130.4 820.9,125.4 822.0,120.1 823.1,115.6 824.2,114.6 825.3,119.1 826.5,127.3 827.6,127.7 828.7,130.1 829.8,145.2 830.9,157.6 832.0,136.7 833.1,140.2 834.2,131.9 835.3,132.3 836.4,121.8 837.5,132.6 838.6,125.3 839.7,123.9 840.8,104.1 841.9,102.5 843.0,106.7 844.1,113.9 845.2,106.9 846.3,112.8 847.4,116.9 848.5,118.6 849.6,134.3 850.7,150.6 851.8,145.6 852.9,141.0 854.0,102.1 855.1,127.3 856.2,114.0 857.3,141.8 858.4,124.6 859.5,135.8 860.6,127.7 861.7,133.6 862.8,122.7 863.9,120.2 865.0,129.9 866.1,141.7 867.2,140.7 868.3,129.6 869.4,111.4 870.5,93.9 871.6,92.3 872.7,108.2 873.8,114.9 874.9,121.9 876.0,131.3" fill="none" stroke="#9AAABB" stroke-width="2" opacity="0.95"/>
<line x1="716" y1="58" x2="736" y2="58" stroke="#9AAABB" stroke-width="3"/>
<text x="742" y="62" fill="#EDE8DC" font-size="11">independent-grid2-fix-s0</text>
<polyline points="71.1,369.8 72.2,352.9 73.3,349.9 74.4,327.2 75.5,312.2 76.6,315.5 77.7,323.2 78.8,319.5 79.9,307.7 81.0,304.3 82.1,319.3 83.2,321.7 84.3,327.1 85.4,316.5 86.5,311.5 87.6,296.8 88.7,294.6 89.8,303.9 90.9,308.9 92.0,301.8 93.1,286.0 94.2,281.2 95.3,282.6 96.4,285.9 97.5,302.0 98.6,297.8 99.7,294.2 100.8,281.5 101.9,266.8 103.0,270.6 104.1,274.7 105.2,292.1 106.3,300.7 107.4,320.3 108.5,313.9 109.6,284.5 110.7,289.5 111.8,276.6 112.9,282.3 114.0,285.9 115.1,278.7 116.2,275.9 117.3,245.9 118.4,238.5 119.5,230.6 120.7,219.6 121.8,208.5 122.9,199.5 124.0,197.1 125.1,206.6 126.2,207.9 127.3,197.8 128.4,192.9 129.5,199.9 130.6,198.6 131.7,196.1 132.8,192.8 133.9,200.0 135.0,194.0 136.1,174.9 137.2,177.1 138.3,182.8 139.4,181.6 140.5,162.7 141.6,155.5 142.7,140.8 143.8,146.1 144.9,159.7 146.0,175.0 147.1,184.7 148.2,186.1 149.3,183.7 150.4,174.5 151.5,163.1 152.6,164.1 153.7,158.0 154.8,164.4 155.9,166.3 157.0,163.2 158.1,150.8 159.2,143.6 160.3,161.5 161.4,164.7 162.5,164.1 163.6,155.9 164.7,155.0 165.8,155.4 166.9,166.5 168.0,156.6 169.1,162.7 170.2,182.9 171.3,182.8 172.4,182.2 173.5,170.6 174.6,169.1 175.7,163.0 176.8,155.3 177.9,162.0 179.0,164.4 180.1,175.0 181.2,172.0 182.3,161.7 183.4,144.3 184.5,132.0 185.6,164.5 186.7,155.4 187.8,135.5 188.9,123.4 190.0,147.1 191.1,148.1 192.2,168.1 193.3,157.8 194.4,165.0 195.5,156.8 196.6,154.2 197.7,144.5 198.8,150.7 199.9,152.9 201.0,156.1 202.1,157.2 203.2,155.0 204.3,150.3 205.4,153.2 206.5,150.8 207.6,142.3 208.7,145.8 209.8,149.0 210.9,164.2 212.0,157.5 213.1,155.8 214.2,149.2 215.3,155.5 216.4,151.9 217.5,155.8 218.6,157.1 219.7,152.0 220.8,155.2 222.0,179.2 223.1,183.8 224.2,166.1 225.3,152.6 226.4,144.7 227.5,158.8 228.6,149.8 229.7,150.4 230.8,149.7 231.9,153.1 233.0,160.5 234.1,161.7 235.2,151.5 236.3,156.0 237.4,162.7 238.5,173.8 239.6,174.8 240.7,169.4 241.8,167.7 242.9,163.1 244.0,164.7 245.1,165.2 246.2,163.0 247.3,184.0 248.4,188.8 249.5,179.8 250.6,165.6 251.7,166.0 252.8,150.7 253.9,153.5 255.0,160.1 256.1,162.1 257.2,156.2 258.3,151.5 259.4,162.1 260.5,172.3 261.6,164.3 262.7,160.0 263.8,152.8 264.9,162.1 266.0,171.4 267.1,194.2 268.2,191.3 269.3,173.0 270.4,169.6 271.5,167.4 272.6,193.7 273.7,187.1 274.8,186.9 275.9,178.6 277.0,176.5 278.1,170.3 279.2,178.9 280.3,208.7 281.4,212.3 282.5,208.7 283.6,200.1 284.7,220.3 285.8,217.1 286.9,221.0 288.0,225.6 289.1,240.2 290.2,246.7 291.3,240.2 292.4,219.4 293.5,198.8 294.6,189.9 295.7,183.9 296.8,181.5 297.9,182.7 299.0,177.9 300.1,199.2 301.2,199.9 302.3,183.4 303.4,171.1 304.5,193.5 305.6,196.8 306.7,207.9 307.8,172.8 308.9,189.6 310.0,181.5 311.1,189.8 312.2,179.7 313.3,186.3 314.4,189.8 315.5,196.4 316.6,191.2 317.7,184.0 318.8,195.3 319.9,197.4 321.0,210.0 322.2,194.2 323.3,201.3 324.4,190.9 325.5,207.1 326.6,195.0 327.7,196.9 328.8,173.3 329.9,183.2 331.0,171.4 332.1,188.5 333.2,189.0 334.3,193.0 335.4,192.5 336.5,182.9 337.6,166.5 338.7,164.2 339.8,187.7 340.9,194.9 342.0,203.5 343.1,199.5 344.2,201.9 345.3,201.2 346.4,211.7 347.5,203.9 348.6,198.6 349.7,201.5 350.8,211.4 351.9,202.5 353.0,183.9 354.1,158.4 355.2,154.6 356.3,170.1 357.4,168.5 358.5,182.0 359.6,169.5 360.7,170.9 361.8,169.0 362.9,177.9 364.0,178.0 365.1,195.1 366.2,188.4 367.3,174.6 368.4,163.4 369.5,193.9 370.6,198.7 371.7,211.3 372.8,211.2 373.9,205.4 375.0,194.2 376.1,179.9 377.2,183.1 378.3,197.7 379.4,202.1 380.5,182.2 381.6,172.4 382.7,161.5 383.8,155.2 384.9,179.7 386.0,197.1 387.1,209.6 388.2,213.4 389.3,196.7 390.4,188.5 391.5,167.2 392.6,171.0 393.7,154.2 394.8,169.4 395.9,171.9 397.0,181.5 398.1,174.5 399.2,179.4 400.3,179.6 401.4,176.2 402.5,175.3 403.6,175.7 404.7,184.3 405.8,164.8 406.9,162.5 408.0,168.1 409.1,170.5 410.2,171.9 411.3,160.7 412.4,159.7 413.5,154.1 414.6,161.7 415.7,183.2 416.8,191.1 417.9,181.0 419.0,190.4 420.1,177.6 421.2,168.5 422.3,187.1 423.5,192.6 424.6,218.6 425.7,202.9 426.8,199.9 427.9,193.0 429.0,189.7 430.1,184.1 431.2,167.6 432.3,176.5 433.4,186.2 434.5,199.3 435.6,180.3 436.7,183.1 437.8,178.9 438.9,182.6 440.0,171.3 441.1,168.5 442.2,177.2 443.3,185.8 444.4,168.9 445.5,153.2 446.6,140.5 447.7,150.6 448.8,151.4 449.9,148.9 451.0,165.6 452.1,163.6 453.2,165.0 454.3,160.0 455.4,154.4 456.5,156.0 457.6,153.1 458.7,156.2 459.8,170.7 460.9,187.1 462.0,191.3 463.1,176.3 464.2,166.2 465.3,156.1 466.4,164.4 467.5,165.9 468.6,165.1 469.7,170.4 470.8,176.0 471.9,168.3 473.0,150.5 474.1,163.2 475.2,166.5 476.3,173.6 477.4,165.7 478.5,176.7 479.6,180.4 480.7,164.9 481.8,159.6 482.9,165.6 484.0,182.4 485.1,182.7 486.2,172.5 487.3,156.0 488.4,148.8 489.5,144.7 490.6,148.7 491.7,162.5 492.8,163.3 493.9,165.8 495.0,174.8 496.1,175.1 497.2,178.2 498.3,171.8 499.4,175.8 500.5,159.6 501.6,147.7 502.7,143.9 503.8,147.0 504.9,142.9 506.0,140.5 507.1,150.4 508.2,160.2 509.3,151.4 510.4,139.9 511.5,137.6 512.6,150.9 513.7,153.2 514.8,146.5 515.9,136.9 517.0,136.0 518.1,148.9 519.2,159.9 520.3,170.2 521.4,156.5 522.5,146.4 523.7,133.7 524.8,138.6 525.9,150.5 527.0,157.0 528.1,175.8 529.2,185.4 530.3,180.4 531.4,175.5 532.5,164.1 533.6,161.5 534.7,186.2 535.8,172.5 536.9,164.6 538.0,146.1 539.1,153.7 540.2,161.7 541.3,170.2 542.4,176.3 543.5,171.1 544.6,154.9 545.7,155.9 546.8,155.5 547.9,164.4 549.0,164.2 550.1,158.3 551.2,143.6 552.3,136.7 553.4,140.8 554.5,152.8 555.6,162.8 556.7,156.6 557.8,153.2 558.9,157.8 560.0,150.3 561.1,140.9 562.2,128.7 563.3,136.7 564.4,138.4 565.5,137.9 566.6,150.1 567.7,171.5 568.8,182.3 569.9,188.9 571.0,177.8 572.1,156.2 573.2,162.7 574.3,155.5 575.4,160.4 576.5,163.9 577.6,155.9 578.7,160.1 579.8,146.7 580.9,149.8 582.0,157.4 583.1,173.1 584.2,165.3 585.3,159.0 586.4,155.2 587.5,154.5 588.6,166.9 589.7,171.9 590.8,178.8 591.9,169.0 593.0,159.5 594.1,169.1 595.2,182.5 596.3,183.2 597.4,159.4 598.5,148.0 599.6,150.7 600.7,151.0 601.8,175.3 602.9,170.0 604.0,168.1 605.1,160.3 606.2,163.3 607.3,168.1 608.4,194.2 609.5,181.9 610.6,169.1 611.7,151.8 612.8,153.4 613.9,183.2 615.0,177.6 616.1,163.6 617.2,161.2 618.3,171.7 619.4,177.1 620.5,177.3 621.6,163.0 622.7,155.4 623.8,158.7 625.0,164.6 626.1,183.6 627.2,189.7 628.3,197.7 629.4,195.3 630.5,205.5 631.6,195.6 632.7,181.1 633.8,173.0 634.9,178.8 636.0,193.6 637.1,204.8 638.2,201.4 639.3,203.4 640.4,182.5 641.5,199.3 642.6,195.5 643.7,187.5 644.8,173.8 645.9,176.4 647.0,180.7 648.1,194.6 649.2,188.9 650.3,179.7 651.4,184.8 652.5,188.1 653.6,200.7 654.7,193.8 655.8,206.8 656.9,196.9 658.0,182.0 659.1,190.2 660.2,191.3 661.3,183.5 662.4,170.4 663.5,183.9 664.6,216.8 665.7,206.0 666.8,199.1 667.9,207.6 669.0,209.1 670.1,199.8 671.2,183.5 672.3,181.4 673.4,175.2 674.5,169.8 675.6,164.1 676.7,163.1 677.8,193.9 678.9,194.2 680.0,201.1 681.1,200.6 682.2,204.8 683.3,194.7 684.4,189.0 685.5,181.0 686.6,195.7 687.7,181.8 688.8,174.3 689.9,158.4 691.0,158.3 692.1,177.8 693.2,188.9 694.3,190.8 695.4,191.5 696.5,193.5 697.6,200.1 698.7,170.4 699.8,173.4 700.9,163.3 702.0,176.8 703.1,168.5 704.2,172.1 705.3,175.6 706.4,185.8 707.5,195.7 708.6,188.2 709.7,180.7 710.8,159.3 711.9,160.9 713.0,162.8 714.1,177.1 715.2,198.2 716.3,194.9 717.4,197.9 718.5,181.9 719.6,189.9 720.7,174.5 721.8,183.2 722.9,182.8 724.0,188.4 725.2,193.1 726.3,199.2 727.4,198.6 728.5,208.2 729.6,202.7 730.7,215.0 731.8,209.9 732.9,197.6 734.0,180.7 735.1,194.3 736.2,190.5 737.3,190.7 738.4,174.2 739.5,184.9 740.6,178.6 741.7,196.7 742.8,179.2 743.9,175.5 745.0,167.9 746.1,181.2 747.2,207.4 748.3,206.8 749.4,197.2 750.5,195.4 751.6,204.7 752.7,197.8 753.8,205.2 754.9,214.7 756.0,220.3 757.1,228.3 758.2,224.9 759.3,236.3 760.4,237.8 761.5,240.1 762.6,238.2 763.7,234.4 764.8,216.1 765.9,207.6 767.0,187.2 768.1,195.7 769.2,202.1 770.3,215.5 771.4,225.2 772.5,210.5 773.6,200.6 774.7,191.9 775.8,199.7 776.9,197.8 778.0,190.6 779.1,193.6 780.2,185.2 781.3,180.9 782.4,181.5 783.5,201.1 784.6,201.3 785.7,205.5 786.8,199.5 787.9,198.9 789.0,184.2 790.1,185.1 791.2,196.2 792.3,199.4 793.4,196.0 794.5,188.4 795.6,204.7 796.7,216.9 797.8,215.2 798.9,217.8 800.0,206.0 801.1,195.8 802.2,202.3 803.3,222.0 804.4,228.7 805.5,229.0 806.6,225.7 807.7,226.5 808.8,223.7 809.9,220.5 811.0,216.7 812.1,221.6 813.2,225.9 814.3,208.5 815.4,187.9 816.5,184.5 817.6,189.0 818.7,201.9 819.8,199.9 820.9,197.0 822.0,195.8 823.1,179.9 824.2,182.9 825.3,185.3 826.5,202.4 827.6,212.9 828.7,223.0 829.8,244.4 830.9,261.4 832.0,245.3 833.1,249.4 834.2,228.2 835.3,226.5 836.4,225.3 837.5,237.3 838.6,225.9 839.7,225.2 840.8,210.4 841.9,213.4 843.0,211.1 844.1,220.2 845.2,207.4 846.3,222.1 847.4,217.3 848.5,221.7 849.6,228.3 850.7,244.4 851.8,239.4 852.9,249.6 854.0,221.6 855.1,257.5 856.2,252.6 857.3,272.7 858.4,255.3 859.5,262.7 860.6,257.2 861.7,251.5 862.8,241.6 863.9,232.1 865.0,227.4 866.1,247.8 867.2,253.0 868.3,258.2 869.4,230.7 870.5,213.3 871.6,207.8 872.7,234.4 873.8,247.8 874.9,248.1 876.0,258.9" fill="none" stroke="#7D9A6A" stroke-width="2" opacity="0.95"/>
<line x1="716" y1="76" x2="736" y2="76" stroke="#7D9A6A" stroke-width="3"/>
<text x="742" y="80" fill="#EDE8DC" font-size="11">central-grid2-fix-s0</text>
</svg>